<svg id="Vrstva_1" data-name="Vrstva 1" xmlns="http://www.w3.org/2000/svg" xmlns:xlink="http://www.w3.org/1999/xlink" viewBox="0 0 410 410"><defs><linearGradient id="Yellow_Green_2" x1="14.87" y1="204.08" x2="338.36" y2="204.08" gradientUnits="userSpaceOnUse"><stop offset="0" stop-color="#f1f3f5"/><stop offset="0.5" stop-color="#e8ecef"/><stop offset="1" stop-color="#dce1e6"/></linearGradient><linearGradient id="Green_2" x1="277.19" y1="122.76" x2="337.65" y2="122.76" gradientUnits="userSpaceOnUse"><stop offset="0" stop-color="#e0e4e9"/><stop offset="0.5" stop-color="#d3dae0"/><stop offset="1" stop-color="#ced5dc"/></linearGradient><linearGradient id="Green_2-2" x1="141.13" y1="205.4" x2="383" y2="205.4" xlink:href="#Green_2"/></defs><title>flying_eda</title><path d="M332.61,153s-54.42-35.27-108.84-10.08S82.68,217.49,28.27,183.22c0,0,74.57,126,228.76,81.63l40.31-40.31,40.31-27.21,14.11-36.28Z" fill="url(#Yellow_Green_2)"/><path d="M337.65,122.76a30.23,30.23,0,1,1-30.23-30.23A30.22,30.22,0,0,1,337.65,122.76Z" fill="url(#Green_2)"/><path d="M383,92.53S365.87,137.88,332.61,153c0,0,5,22.17-12.09,40.31,0,0-45.35-60.46-128,16.13,0,0,68.53-28.22,66.51,10.07s-74.57,92.72-117.91,98.76C141.13,318.26,351.76,318.26,383,92.53Z" fill="url(#Green_2-2)"/></svg>